<?xml version="1.0" encoding="utf-8"?>
<!-- Generator: Adobe Illustrator 20.1.0, SVG Export Plug-In . SVG Version: 6.00 Build 0)  -->
<svg version="1.1" id="Слой_1" xmlns="http://www.w3.org/2000/svg" xmlns:xlink="http://www.w3.org/1999/xlink" x="0px" y="0px"
	 viewBox="0 0 116.2 30" style="enable-background:new 0 0 116.2 30;" xml:space="preserve">
<style type="text/css">
	.st0{fill:url(#SVGID_1_);}
	.st1{fill:url(#SVGID_2_);}
	.st2{fill:url(#SVGID_3_);}
	.st3{fill:url(#SVGID_4_);}
	.st4{fill:url(#SVGID_5_);}
	.st5{fill:url(#SVGID_6_);}
	.st6{fill:#FFFFFF;}
	.st7{fill:url(#SVGID_7_);}
	.st8{fill:url(#SVGID_8_);}
	.st9{fill:url(#SVGID_9_);}
	.st10{fill:url(#SVGID_10_);}
	.st11{fill:url(#SVGID_11_);}
	.st12{fill:url(#SVGID_12_);}
	.st13{fill:url(#SVGID_13_);}
	.st14{fill:url(#SVGID_14_);}
	.st15{fill:url(#SVGID_15_);}
	.st16{fill:#848484;}
</style>
<g>
	<g>
		
			<radialGradient id="SVGID_1_" cx="-342.2461" cy="314.8104" r="1.211321e-02" gradientTransform="matrix(1239.55 -1453.1774 -1419.4518 -1269.0021 871093.375 -97824.7109)" gradientUnits="userSpaceOnUse">
			<stop  offset="0" style="stop-color:#22A249"/>
			<stop  offset="0.2182" style="stop-color:#A5D066"/>
			<stop  offset="0.6848" style="stop-color:#69BD45"/>
			<stop  offset="1" style="stop-color:#007332"/>
		</radialGradient>
		<path class="st0" d="M10.6,3.7C5.4,3.7,0.2,8.5,0.2,14.9c0,3.1,0.8,6,2.4,8.4c0.3,0.3,0.8,0.6,1.2,0.8c-0.9-1.8-1.5-3.8-1.5-6
			c0-6.9,4.5-12.4,12.1-12.4c1.6,0,3,0.3,4.4,0.9C16.6,4.8,13.8,3.7,10.6,3.7z"/>
		
			<radialGradient id="SVGID_2_" cx="-341.5766" cy="316.592" r="1.224171e-02" gradientTransform="matrix(70.7392 -2039.5396 -1992.2048 -72.42 654892.1875 -673701.625)" gradientUnits="userSpaceOnUse">
			<stop  offset="0" style="stop-color:#A3B156"/>
			<stop  offset="0.2182" style="stop-color:#9ACA3C"/>
			<stop  offset="0.6242" style="stop-color:#83A639"/>
			<stop  offset="1" style="stop-color:#0C6F30"/>
		</radialGradient>
		<path class="st1" d="M9.1,25.9C4.4,21.1,5.9,11,9,8.3c2-2,4.4-2.5,4.6-2.5C9.7,5.8,7.2,7.4,5,9.6c-3.1,3.2-4.4,7.6-3.6,11.4
			C3.1,25,6,28.2,11.5,29.6c1.2,0.3,1.5-0.2,2.8-0.5C12.4,28.5,10.6,27.5,9.1,25.9z"/>
		
			<radialGradient id="SVGID_3_" cx="-339.5143" cy="317.7764" r="1.208201e-02" gradientTransform="matrix(-1439.5161 -1299.7438 -1269.579 1473.7189 -85269.2266 -909569.4375)" gradientUnits="userSpaceOnUse">
			<stop  offset="0" style="stop-color:#FFFFFF"/>
			<stop  offset="0.2061" style="stop-color:#C8CB59"/>
			<stop  offset="0.5455" style="stop-color:#B4D133"/>
			<stop  offset="1" style="stop-color:#4A6B18"/>
		</radialGradient>
		<path class="st2" d="M19,26.8c-6.7,0-12.1-5.5-12.1-12.3c0-1.6,0.3-3.1,0.9-4.5c-1.8,2.2-2.9,5.1-2.9,8.3c0,5.1,2.7,9.5,6.7,11.3
			c1.1,0.3,2.3,0.4,3.4,0.4c3,0,5.8-0.9,8.1-2.5c0.7-0.7,1.3-1.4,1.8-2.2C23.1,26.2,21.1,26.8,19,26.8z"/>
		
			<radialGradient id="SVGID_4_" cx="-337.4373" cy="317.0587" r="1.207162e-02" gradientTransform="matrix(-1889.3505 102.365 99.9892 1934.2411 -669209.9375 -578710.6875)" gradientUnits="userSpaceOnUse">
			<stop  offset="0" style="stop-color:#FFFFFF"/>
			<stop  offset="0.1212" style="stop-color:#E9C457"/>
			<stop  offset="0.5939" style="stop-color:#FBA91D"/>
			<stop  offset="1" style="stop-color:#6E6812"/>
		</radialGradient>
		<path class="st3" d="M26.6,20.7c-4.7,4.9-12.4,4.9-17.1,0.1c-1.1-1.1-2-2.5-2.5-3.9c0.3,3.4,1.4,5.8,3.6,8.1
			c2.9,3,6.8,4.2,10.3,3.8c4.9-2.3,8.3-7.2,8.6-13C29,17.5,28.1,19.2,26.6,20.7z"/>
		
			<radialGradient id="SVGID_5_" cx="-336.3383" cy="315.1911" r="1.208333e-02" gradientTransform="matrix(-1259.5319 1309.9269 1279.5256 1289.4583 -826897.3125 34158.7539)" gradientUnits="userSpaceOnUse">
			<stop  offset="0" style="stop-color:#F79B81"/>
			<stop  offset="0.6121" style="stop-color:#F8982F"/>
			<stop  offset="1" style="stop-color:#844C05"/>
		</radialGradient>
		<path class="st4" d="M26.7,5.8c0.6,1.4,0.9,3,0.9,4.7c0,6.9-5.4,12.4-12.1,12.4c-1.6,0-3-0.3-4.4-0.9c2.1,1.8,5,3,8.1,3
			c3.7,0,7-1.5,9.2-4c0.8-1.9,1.3-3.9,1.3-6.1C29.6,11.5,28.5,8.4,26.7,5.8z"/>
		
			<radialGradient id="SVGID_6_" cx="-337.1298" cy="312.9301" r="1.197658e-02" gradientTransform="matrix(69.9727 1872.7979 1829.3331 -71.6353 -548845.9375 653792.875)" gradientUnits="userSpaceOnUse">
			<stop  offset="0" style="stop-color:#FEE7D9"/>
			<stop  offset="0.5212" style="stop-color:#E3473F"/>
			<stop  offset="1" style="stop-color:#C36C16"/>
		</radialGradient>
		<path class="st5" d="M16.9,0c1.5,0.6,2.8,1.5,4,2.7C28,10,23.6,18,21.5,20.3c-1.1,1.1-2.4,1.9-3.8,2.5c2.8-0.3,5.1-1.5,7.3-3.7
			c2.5-2.6,3.8-6,3.8-9.2C26.9,4.6,22.4,0.7,16.9,0z"/>
		<ellipse class="st6" cx="15" cy="14.4" rx="8.6" ry="8.7"/>
	</g>
	<g>
		<linearGradient id="SVGID_7_" gradientUnits="userSpaceOnUse" x1="40.2774" y1="6.5187" x2="40.2774" y2="17.318">
			<stop  offset="0" style="stop-color:#559842"/>
			<stop  offset="1" style="stop-color:#2A7439"/>
		</linearGradient>
		<path class="st7" d="M36.5,17.3v-1.5l1.4-1.2c2.3-2.1,3.5-3.3,3.5-4.5c0-0.9-0.5-1.6-1.7-1.6c-0.9,0-1.7,0.5-2.3,0.9l-0.7-1.8
			c0.8-0.6,2-1.1,3.5-1.1c2.4,0,3.7,1.4,3.7,3.3c0,1.8-1.3,3.2-2.8,4.6l-1,0.8v0h4v2H36.5z"/>
		<linearGradient id="SVGID_8_" gradientUnits="userSpaceOnUse" x1="49.4131" y1="6.6984" x2="49.4131" y2="17.318">
			<stop  offset="0" style="stop-color:#559842"/>
			<stop  offset="1" style="stop-color:#2A7439"/>
		</linearGradient>
		<path class="st8" d="M50,17.3v-2.5h-4.7v-1.6l4-6.5h3.1v6.2h1.3v1.9h-1.3v2.5H50z M50,12.9v-2.4c0-0.6,0-1.3,0.1-2h0
			c-0.3,0.7-0.6,1.3-1,2l-1.4,2.3l0,0H50z"/>
		<linearGradient id="SVGID_9_" gradientUnits="userSpaceOnUse" x1="58.3775" y1="6.1429" x2="58.3775" y2="17.4813">
			<stop  offset="0" style="stop-color:#559842"/>
			<stop  offset="1" style="stop-color:#2A7439"/>
		</linearGradient>
		<path class="st9" d="M55.1,14.8c0.7,0.3,1.7,0.7,2.8,0.7c1.1,0,1.7-0.5,1.7-1.2c0-0.7-0.5-1.1-1.8-1.5c-1.8-0.7-3-1.7-3-3.3
			c0-1.9,1.6-3.3,4.2-3.3c1.3,0,2.2,0.2,2.8,0.6l-0.6,2c-0.4-0.2-1.2-0.5-2.3-0.5c-1.1,0-1.6,0.5-1.6,1.1c0,0.7,0.6,1,2,1.6
			c1.9,0.7,2.8,1.7,2.8,3.3c0,1.8-1.4,3.4-4.4,3.4c-1.3,0-2.5-0.3-3.1-0.7L55.1,14.8z"/>
		<linearGradient id="SVGID_10_" gradientUnits="userSpaceOnUse" x1="68.404" y1="6.3061" x2="68.404" y2="17.318">
			<stop  offset="0" style="stop-color:#559842"/>
			<stop  offset="1" style="stop-color:#2A7439"/>
		</linearGradient>
		<path class="st10" d="M66.4,6.3v4.2h4.1V6.3h2.5v11h-2.5v-4.6h-4.1v4.6h-2.5v-11H66.4z"/>
		<linearGradient id="SVGID_11_" gradientUnits="userSpaceOnUse" x1="79.9015" y1="6.1266" x2="79.9015" y2="17.4978">
			<stop  offset="0" style="stop-color:#559842"/>
			<stop  offset="1" style="stop-color:#2A7439"/>
		</linearGradient>
		<path class="st11" d="M79.8,17.5c-3.3,0-5.2-2.5-5.2-5.6c0-3.3,2.1-5.8,5.4-5.8c3.4,0,5.2,2.5,5.2,5.6
			C85.2,15.3,83,17.5,79.8,17.5L79.8,17.5z M79.9,15.5c1.7,0,2.6-1.6,2.6-3.7c0-2-0.9-3.7-2.6-3.7c-1.7,0-2.7,1.7-2.7,3.7
			C77.2,13.9,78.2,15.5,79.9,15.5L79.9,15.5z"/>
		<linearGradient id="SVGID_12_" gradientUnits="userSpaceOnUse" x1="90.7856" y1="6.2246" x2="90.7856" y2="17.318">
			<stop  offset="0" style="stop-color:#559842"/>
			<stop  offset="1" style="stop-color:#2A7439"/>
		</linearGradient>
		<path class="st12" d="M86.8,6.5c0.8-0.1,1.8-0.2,3.4-0.2c1.5,0,2.6,0.3,3.4,0.9c0.7,0.5,1.2,1.5,1.2,2.5c0,1.1-0.3,2-1,2.6
			c-0.9,0.8-2.1,1.2-3.6,1.2c-0.3,0-0.6,0-0.8-0.1v4h-2.5V6.5z M89.3,11.5c0.2,0,0.5,0.1,0.8,0.1c1.3,0,2.1-0.7,2.1-1.8
			c0-1-0.7-1.6-2-1.6c-0.5,0-0.8,0-1,0.1V11.5z"/>
		<linearGradient id="SVGID_13_" gradientUnits="userSpaceOnUse" x1="95.1731" y1="14.4752" x2="95.1731" y2="17.4978">
			<stop  offset="0" style="stop-color:#559842"/>
			<stop  offset="1" style="stop-color:#2A7439"/>
		</linearGradient>
		<path class="st13" d="M95.1,17.5c-0.8,0-1.4-0.6-1.4-1.5c0-0.9,0.6-1.5,1.5-1.5c0.9,0,1.4,0.6,1.5,1.5
			C96.6,16.9,96,17.5,95.1,17.5L95.1,17.5z"/>
		<linearGradient id="SVGID_14_" gradientUnits="userSpaceOnUse" x1="102.3075" y1="6.2246" x2="102.3075" y2="17.4323">
			<stop  offset="0" style="stop-color:#559842"/>
			<stop  offset="1" style="stop-color:#2A7439"/>
		</linearGradient>
		<path class="st14" d="M98.2,6.5c0.7-0.1,2-0.2,3.2-0.2c1.5,0,2.5,0.1,3.3,0.6C105.5,7.3,106,8,106,9c0,1-0.6,1.9-1.8,2.3v0
			c1.3,0.3,2.2,1.3,2.2,2.7c0,1-0.5,1.8-1.1,2.3c-0.8,0.6-2.1,1-4.3,1c-1.2,0-2.1-0.1-2.7-0.2V6.5z M100.7,10.7h0.8
			c1.3,0,2-0.5,2-1.4c0-0.8-0.6-1.3-1.8-1.3c-0.6,0-0.9,0-1.1,0.1V10.7z M100.7,15.6c0.2,0,0.5,0,1,0c1.1,0,2.1-0.4,2.1-1.6
			c0-1.1-1-1.6-2.2-1.6h-0.8V15.6z"/>
		<linearGradient id="SVGID_15_" gradientUnits="userSpaceOnUse" x1="111.4021" y1="6.3061" x2="111.4021" y2="17.318">
			<stop  offset="0" style="stop-color:#559842"/>
			<stop  offset="1" style="stop-color:#2A7439"/>
		</linearGradient>
		<path class="st15" d="M110.1,17.3v-4.5l-3.5-6.5h2.9l1.1,2.6c0.3,0.8,0.6,1.4,0.9,2.1h0c0.2-0.7,0.5-1.3,0.8-2.1l1.1-2.6h2.8
			l-3.6,6.4v4.6H110.1z"/>
	</g>
	<g>
		<path class="st16" d="M37,21.5v2.1c0,0.8,0,1.4-0.1,2.1l0,0c0.2-0.5,0.5-1,0.9-1.6l1.6-2.5H40v4.9h-0.6v-2.1c0-0.8,0-1.4,0.1-2
			l0,0c-0.2,0.5-0.6,1.1-0.9,1.7L37,26.5h-0.7v-4.9H37z"/>
		<path class="st16" d="M42.8,21.5v2.1h2.4v-2.1h0.6v4.9h-0.6v-2.3h-2.4v2.3h-0.6v-4.9H42.8z"/>
		<path class="st16" d="M48.9,22.1h-1.5v-0.5H51v0.5h-1.5v4.4h-0.6V22.1z"/>
		<path class="st16" d="M55.1,24.1h-1.9v1.8h2.1v0.5h-2.8v-4.9h2.7v0.5h-2v1.6h1.9V24.1z"/>
		<path class="st16" d="M57.2,21.6c0.3-0.1,0.7-0.1,1.2-0.1c0.6,0,1.1,0.1,1.4,0.4c0.3,0.2,0.4,0.6,0.4,1c0,0.4-0.1,0.8-0.4,1
			c-0.3,0.4-0.9,0.5-1.5,0.5c-0.2,0-0.4,0-0.5,0v2h-0.6V21.6z M57.8,24c0.1,0,0.3,0.1,0.5,0.1c0.8,0,1.2-0.4,1.2-1
			c0-0.6-0.5-1-1.2-1c-0.3,0-0.5,0-0.6,0.1V24z"/>
		<path class="st16" d="M62.7,21.5v2.1h2.4v-2.1h0.6v4.9h-0.6v-2.3h-2.4v2.3h-0.6v-4.9H62.7z"/>
		<path class="st16" d="M70.4,24.1h-1.9v1.8h2.1v0.5h-2.8v-4.9h2.7v0.5h-2v1.6h1.9V24.1z"/>
		<path class="st16" d="M73.4,22.1h-1.5v-0.5h3.6v0.5h-1.5v4.4h-0.6V22.1z"/>
		<path class="st16" d="M78.1,24.3v0.5h-1.8v-0.5H78.1z"/>
		<path class="st16" d="M84,24.3c0-0.7-0.1-1.5-0.1-2.1h0c-0.2,0.6-0.4,1.2-0.6,1.9l-0.9,2.4h-0.5l-0.8-2.3
			c-0.2-0.7-0.4-1.3-0.6-1.9h0c0,0.6-0.1,1.4-0.1,2.2l-0.1,2.1h-0.6l0.3-4.9h0.8l0.8,2.4c0.2,0.6,0.4,1.2,0.5,1.7h0
			c0.1-0.5,0.3-1,0.5-1.7l0.9-2.4h0.8l0.3,4.9h-0.6L84,24.3z"/>
		<path class="st16" d="M87.5,24.9L87,26.5h-0.7l1.7-4.9h0.8l1.7,4.9h-0.7l-0.5-1.5H87.5z M89.1,24.4L88.6,23
			c-0.1-0.3-0.2-0.6-0.2-0.9h0c-0.1,0.3-0.1,0.6-0.2,0.9l-0.5,1.4H89.1z"/>
		<path class="st16" d="M94.8,21.5v0.5h-2v4.4h-0.6v-4.9H94.8z"/>
		<path class="st16" d="M96.5,24.9L96,26.5h-0.7l1.7-4.9h0.8l1.7,4.9h-0.7l-0.5-1.5H96.5z M98.1,24.4L97.7,23
			c-0.1-0.3-0.2-0.6-0.2-0.9h0c-0.1,0.3-0.1,0.6-0.2,0.9l-0.5,1.4H98.1z"/>
		<path class="st16" d="M101.1,21.8c0.3-0.2,0.8-0.4,1.3-0.4c0.9,0,1.4,0.4,1.4,1.2c0,0.6-0.4,1.1-1,1.2v0c0.7,0.1,1.2,0.5,1.2,1.2
			c0,1-0.9,1.4-1.8,1.4c-0.4,0-0.9-0.1-1.3-0.3l0.2-0.5c0.3,0.2,0.7,0.3,1.1,0.3c0.7,0,1.1-0.4,1.1-0.9c0-0.7-0.7-0.9-1.3-0.9h-0.3
			v-0.5h0.3c0.6,0,1.2-0.4,1.2-0.9c0-0.5-0.4-0.8-0.9-0.8c-0.4,0-0.8,0.2-1,0.3L101.1,21.8z"/>
		<path class="st16" d="M106.5,21.5v2.1c0,0.8,0,1.4-0.1,2.1l0,0c0.2-0.5,0.5-1,0.9-1.6l1.6-2.5h0.6v4.9H109v-2.1c0-0.8,0-1.4,0.1-2
			l0,0c-0.2,0.5-0.6,1.1-0.9,1.7l-1.5,2.4h-0.7v-4.9H106.5z"/>
		<path class="st16" d="M112.3,21.5v2.1h2.4v-2.1h0.6v4.9h-0.6v-2.3h-2.4v2.3h-0.6v-4.9H112.3z"/>
	</g>
</g>
</svg>
